<svg xmlns="http://www.w3.org/2000/svg" width="1200" height="630" viewBox="0 0 1200 630">
  <defs>
    <linearGradient id="bg" x1="0" y1="0" x2="1" y2="1" gradientUnits="objectBoundingBox">
      <stop offset="0%" stop-color="#0f172a"/>
      <stop offset="100%" stop-color="#1a1a2e"/>
    </linearGradient>
    <linearGradient id="accent" x1="0" y1="0" x2="1" y2="0" gradientUnits="objectBoundingBox">
      <stop offset="0%" stop-color="#ec4899"/>
      <stop offset="100%" stop-color="#8b5cf6"/>
    </linearGradient>
  </defs>

  <rect width="1200" height="630" fill="url(#bg)"/>
  <rect width="1200" height="4" fill="url(#accent)"/>

  <!-- Glow -->
  <circle cx="600" cy="315" r="350" fill="#ec4899" opacity="0.03"/>

  <!-- Browser frame -->
  <rect x="80" y="90" width="1040" height="450" rx="12" fill="#1e293b" stroke="#334155" stroke-width="1"/>
  <rect x="80" y="90" width="1040" height="44" rx="12" fill="#0f172a"/>
  <rect x="80" y="122" width="1040" height="12" fill="#0f172a"/>
  <circle cx="118" cy="112" r="6" fill="#ef4444" opacity="0.7"/>
  <circle cx="140" cy="112" r="6" fill="#f59e0b" opacity="0.7"/>
  <circle cx="162" cy="112" r="6" fill="#22c55e" opacity="0.7"/>
  <rect x="300" y="101" width="600" height="22" rx="11" fill="#1e293b"/>
  <text x="600" y="116" font-family="system-ui,monospace" font-size="12" fill="#64748b" text-anchor="middle">anita.com / lingerie</text>

  <!-- NavBar -->
  <rect x="80" y="134" width="1040" height="48" fill="#0f172a"/>
  <text x="600" y="163" font-family="system-ui,sans-serif" font-size="18" font-weight="800" fill="white" text-anchor="middle" letter-spacing="6">ANITA</text>
  <text x="200" y="163" font-family="system-ui,sans-serif" font-size="11" fill="#94a3b8">New Collection</text>
  <text x="320" y="163" font-family="system-ui,sans-serif" font-size="11" fill="#94a3b8">Bras</text>
  <text x="380" y="163" font-family="system-ui,sans-serif" font-size="11" fill="#94a3b8">Lingerie</text>
  <text x="440" y="163" font-family="system-ui,sans-serif" font-size="11" fill="#94a3b8">Sports</text>
  <text x="950" y="163" font-family="system-ui,sans-serif" font-size="11" fill="#94a3b8">🛒  Cart (2)</text>

  <!-- Hero area -->
  <rect x="80" y="182" width="1040" height="160" fill="#1a1235"/>
  <text x="600" y="240" font-family="system-ui,sans-serif" font-size="11" fill="#ec4899" text-anchor="middle" letter-spacing="4">NEW COLLECTION</text>
  <text x="600" y="278" font-family="system-ui,sans-serif" font-size="34" font-weight="800" fill="white" text-anchor="middle" letter-spacing="2">Comfort Meets Style</text>
  <rect x="510" y="300" width="180" height="34" rx="17" fill="#ec4899"/>
  <text x="600" y="322" font-family="system-ui,sans-serif" font-size="13" font-weight="600" fill="white" text-anchor="middle">Shop Now</text>

  <!-- Product grid -->
  <!-- Product 1 -->
  <rect x="115" y="360" width="200" height="150" rx="8" fill="#0f172a" stroke="#1e293b" stroke-width="1"/>
  <rect x="115" y="360" width="200" height="100" rx="8" fill="#2d1a35"/>
  <rect x="115" y="448" width="200" height="12" fill="#2d1a35"/>
  <text x="215" y="480" font-family="system-ui,sans-serif" font-size="12" fill="#e2e8f0" text-anchor="middle" font-weight="600">Comfort Bra</text>
  <text x="215" y="497" font-family="system-ui,sans-serif" font-size="12" fill="#ec4899" text-anchor="middle">€49.99</text>

  <!-- Product 2 -->
  <rect x="335" y="360" width="200" height="150" rx="8" fill="#0f172a" stroke="#1e293b" stroke-width="1"/>
  <rect x="335" y="360" width="200" height="100" rx="8" fill="#1a2d1a"/>
  <rect x="335" y="448" width="200" height="12" fill="#1a2d1a"/>
  <text x="435" y="480" font-family="system-ui,sans-serif" font-size="12" fill="#e2e8f0" text-anchor="middle" font-weight="600">Sports Top</text>
  <text x="435" y="497" font-family="system-ui,sans-serif" font-size="12" fill="#ec4899" text-anchor="middle">€59.99</text>

  <!-- Product 3 -->
  <rect x="555" y="360" width="200" height="150" rx="8" fill="#0f172a" stroke="#1e293b" stroke-width="1"/>
  <rect x="555" y="360" width="200" height="100" rx="8" fill="#2d1a1a"/>
  <rect x="555" y="448" width="200" height="12" fill="#2d1a1a"/>
  <text x="655" y="480" font-family="system-ui,sans-serif" font-size="12" fill="#e2e8f0" text-anchor="middle" font-weight="600">Seamless Set</text>
  <text x="655" y="497" font-family="system-ui,sans-serif" font-size="12" fill="#ec4899" text-anchor="middle">€79.99</text>

  <!-- Product 4 -->
  <rect x="775" y="360" width="200" height="150" rx="8" fill="#0f172a" stroke="#1e293b" stroke-width="1"/>
  <rect x="775" y="360" width="200" height="100" rx="8" fill="#1a1a2d"/>
  <rect x="775" y="448" width="200" height="12" fill="#1a1a2d"/>
  <text x="875" y="480" font-family="system-ui,sans-serif" font-size="12" fill="#e2e8f0" text-anchor="middle" font-weight="600">Lace Lingerie</text>
  <text x="875" y="497" font-family="system-ui,sans-serif" font-size="12" fill="#ec4899" text-anchor="middle">€89.99</text>

  <!-- Bottom title -->
  <text x="600" y="575" font-family="system-ui,sans-serif" font-size="20" font-weight="700" fill="white" text-anchor="middle">Anita</text>
  <text x="600" y="600" font-family="system-ui,sans-serif" font-size="13" fill="#64748b" text-anchor="middle">E-commerce Website · Magento 2 · PHP</text>
</svg>
