<svg xmlns="http://www.w3.org/2000/svg" width="1200" height="630" viewBox="0 0 1200 630">
  <defs>
    <linearGradient id="bg" x1="0" y1="0" x2="1" y2="1" gradientUnits="objectBoundingBox">
      <stop offset="0%" stop-color="#0f172a"/>
      <stop offset="100%" stop-color="#0d1f0d"/>
    </linearGradient>
    <linearGradient id="accent" x1="0" y1="0" x2="1" y2="0" gradientUnits="objectBoundingBox">
      <stop offset="0%" stop-color="#22c55e"/>
      <stop offset="100%" stop-color="#06b6d4"/>
    </linearGradient>
  </defs>

  <rect width="1200" height="630" fill="url(#bg)"/>
  <rect width="1200" height="4" fill="url(#accent)"/>

  <!-- Glow -->
  <circle cx="280" cy="300" r="280" fill="#22c55e" opacity="0.04"/>
  <circle cx="900" cy="330" r="280" fill="#06b6d4" opacity="0.03"/>

  <!-- Left panel: Robo CLI terminal -->
  <rect x="80" y="100" width="480" height="430" rx="12" fill="#0f172a" stroke="#334155" stroke-width="1"/>
  <rect x="80" y="100" width="480" height="44" rx="12" fill="#1e293b"/>
  <rect x="80" y="132" width="480" height="12" fill="#1e293b"/>
  <circle cx="110" cy="122" r="6" fill="#ef4444" opacity="0.7"/>
  <circle cx="130" cy="122" r="6" fill="#f59e0b" opacity="0.7"/>
  <circle cx="150" cy="122" r="6" fill="#22c55e" opacity="0.7"/>
  <text x="320" y="127" font-family="system-ui,monospace" font-size="12" fill="#64748b" text-anchor="middle">zsh — magento-features</text>

  <text x="110" y="168" font-family="monospace" font-size="12" fill="#22c55e">$</text>
  <text x="124" y="168" font-family="monospace" font-size="12" fill="#e2e8f0">robo up</text>
  <text x="110" y="192" font-family="monospace" font-size="12" fill="#64748b">Starting services...</text>
  <text x="110" y="212" font-family="monospace" font-size="12" fill="#06b6d4">✔ php</text>
  <text x="180" y="212" font-family="monospace" font-size="12" fill="#64748b">started</text>
  <text x="110" y="232" font-family="monospace" font-size="12" fill="#06b6d4">✔ nginx</text>
  <text x="180" y="232" font-family="monospace" font-size="12" fill="#64748b">started</text>
  <text x="110" y="252" font-family="monospace" font-size="12" fill="#06b6d4">✔ varnish</text>
  <text x="194" y="252" font-family="monospace" font-size="12" fill="#64748b">started</text>
  <text x="110" y="272" font-family="monospace" font-size="12" fill="#06b6d4">✔ db</text>
  <text x="150" y="272" font-family="monospace" font-size="12" fill="#64748b">started</text>
  <text x="110" y="292" font-family="monospace" font-size="12" fill="#06b6d4">✔ redis</text>
  <text x="166" y="292" font-family="monospace" font-size="12" fill="#64748b">started</text>
  <text x="110" y="312" font-family="monospace" font-size="12" fill="#22c55e">Magento installed at http://magento.local</text>

  <line x1="100" y1="328" x2="540" y2="328" stroke="#1e293b" stroke-width="1"/>

  <text x="110" y="350" font-family="monospace" font-size="12" fill="#22c55e">$</text>
  <text x="124" y="350" font-family="monospace" font-size="12" fill="#e2e8f0">robo module:init Aichouchm_ProductRelations</text>
  <text x="110" y="374" font-family="monospace" font-size="12" fill="#64748b">Generating DI...</text>
  <text x="110" y="394" font-family="monospace" font-size="12" fill="#64748b">Running setup:upgrade...</text>
  <text x="110" y="414" font-family="monospace" font-size="12" fill="#22c55e">✔ Module ready</text>

  <line x1="100" y1="430" x2="540" y2="430" stroke="#1e293b" stroke-width="1"/>

  <text x="110" y="452" font-family="monospace" font-size="12" fill="#22c55e">$</text>
  <text x="124" y="452" font-family="monospace" font-size="12" fill="#e2e8f0">robo lint</text>
  <text x="110" y="474" font-family="monospace" font-size="12" fill="#64748b">PHPCS (PSR-12) + PHPStan level 8</text>
  <text x="110" y="494" font-family="monospace" font-size="12" fill="#22c55e">✔ No issues found in modules/</text>

  <!-- Right panel: Docker stack -->
  <rect x="620" y="100" width="500" height="430" rx="12" fill="#1e293b" stroke="#334155" stroke-width="1"/>
  <rect x="620" y="100" width="500" height="44" rx="12" fill="#0f172a"/>
  <rect x="620" y="132" width="500" height="12" fill="#0f172a"/>
  <text x="870" y="127" font-family="system-ui,sans-serif" font-size="13" font-weight="600" fill="#94a3b8" text-anchor="middle">Docker Stack</text>

  <!-- Service rows -->
  <rect x="635" y="152" width="470" height="36" rx="6" fill="#0f172a"/>
  <rect x="645" y="162" width="8" height="16" rx="2" fill="#22c55e"/>
  <text x="663" y="174" font-family="system-ui,sans-serif" font-size="12" font-weight="600" fill="#e2e8f0">varnish</text>
  <text x="780" y="174" font-family="system-ui,sans-serif" font-size="11" fill="#64748b">varnish:7.4-alpine</text>
  <text x="1030" y="174" font-family="system-ui,sans-serif" font-size="11" fill="#06b6d4" text-anchor="end">:80</text>

  <rect x="635" y="196" width="470" height="36" rx="6" fill="#0f172a"/>
  <rect x="645" y="206" width="8" height="16" rx="2" fill="#22c55e"/>
  <text x="663" y="218" font-family="system-ui,sans-serif" font-size="12" font-weight="600" fill="#e2e8f0">nginx</text>
  <text x="780" y="218" font-family="system-ui,sans-serif" font-size="11" fill="#64748b">nginx:1.25-alpine</text>
  <text x="1030" y="218" font-family="system-ui,sans-serif" font-size="11" fill="#06b6d4" text-anchor="end">:8080</text>

  <rect x="635" y="240" width="470" height="36" rx="6" fill="#0f172a"/>
  <rect x="645" y="250" width="8" height="16" rx="2" fill="#22c55e"/>
  <text x="663" y="262" font-family="system-ui,sans-serif" font-size="12" font-weight="600" fill="#e2e8f0">php</text>
  <text x="780" y="262" font-family="system-ui,sans-serif" font-size="11" fill="#64748b">PHP 8.3-FPM (custom)</text>
  <text x="1030" y="262" font-family="system-ui,sans-serif" font-size="11" fill="#64748b" text-anchor="end">FPM</text>

  <rect x="635" y="284" width="470" height="36" rx="6" fill="#0f172a"/>
  <rect x="645" y="294" width="8" height="16" rx="2" fill="#22c55e"/>
  <text x="663" y="306" font-family="system-ui,sans-serif" font-size="12" font-weight="600" fill="#e2e8f0">db</text>
  <text x="780" y="306" font-family="system-ui,sans-serif" font-size="11" fill="#64748b">mariadb:10.6</text>
  <text x="1030" y="306" font-family="system-ui,sans-serif" font-size="11" fill="#06b6d4" text-anchor="end">:3306</text>

  <rect x="635" y="328" width="470" height="36" rx="6" fill="#0f172a"/>
  <rect x="645" y="338" width="8" height="16" rx="2" fill="#22c55e"/>
  <text x="663" y="350" font-family="system-ui,sans-serif" font-size="12" font-weight="600" fill="#e2e8f0">elasticsearch</text>
  <text x="780" y="350" font-family="system-ui,sans-serif" font-size="11" fill="#64748b">opensearch:2.12</text>
  <text x="1030" y="350" font-family="system-ui,sans-serif" font-size="11" fill="#06b6d4" text-anchor="end">:9200</text>

  <rect x="635" y="372" width="470" height="36" rx="6" fill="#0f172a"/>
  <rect x="645" y="382" width="8" height="16" rx="2" fill="#22c55e"/>
  <text x="663" y="394" font-family="system-ui,sans-serif" font-size="12" font-weight="600" fill="#e2e8f0">redis</text>
  <text x="780" y="394" font-family="system-ui,sans-serif" font-size="11" fill="#64748b">redis:7.2-alpine</text>
  <text x="1030" y="394" font-family="system-ui,sans-serif" font-size="11" fill="#06b6d4" text-anchor="end">:6379</text>

  <rect x="635" y="416" width="470" height="36" rx="6" fill="#0f172a"/>
  <rect x="645" y="426" width="8" height="16" rx="2" fill="#22c55e"/>
  <text x="663" y="438" font-family="system-ui,sans-serif" font-size="12" font-weight="600" fill="#e2e8f0">rabbitmq</text>
  <text x="780" y="438" font-family="system-ui,sans-serif" font-size="11" fill="#64748b">rabbitmq:3.13-management</text>
  <text x="1030" y="438" font-family="system-ui,sans-serif" font-size="11" fill="#06b6d4" text-anchor="end">:15672</text>

  <!-- Tech badges -->
  <rect x="635" y="468" width="90" height="26" rx="13" fill="#1e293b" stroke="#334155" stroke-width="1"/>
  <text x="680" y="485" font-family="system-ui,sans-serif" font-size="11" fill="#22c55e" text-anchor="middle">Docker</text>

  <rect x="735" y="468" width="60" height="26" rx="13" fill="#1e293b" stroke="#334155" stroke-width="1"/>
  <text x="765" y="485" font-family="system-ui,sans-serif" font-size="11" fill="#f97316" text-anchor="middle">Magento</text>

  <rect x="805" y="468" width="55" height="26" rx="13" fill="#1e293b" stroke="#334155" stroke-width="1"/>
  <text x="832" y="485" font-family="system-ui,sans-serif" font-size="11" fill="#3b82f6" text-anchor="middle">Varnish</text>

  <rect x="870" y="468" width="55" height="26" rx="13" fill="#1e293b" stroke="#334155" stroke-width="1"/>
  <text x="897" y="485" font-family="system-ui,sans-serif" font-size="11" fill="#ef4444" text-anchor="middle">Redis</text>

  <rect x="935" y="468" width="50" height="26" rx="13" fill="#1e293b" stroke="#334155" stroke-width="1"/>
  <text x="960" y="485" font-family="system-ui,sans-serif" font-size="11" fill="#06b6d4" text-anchor="middle">Robo</text>

  <!-- Bottom title -->
  <text x="600" y="575" font-family="system-ui,sans-serif" font-size="20" font-weight="700" fill="white" text-anchor="middle">Magento 2 Innovation Lab</text>
  <text x="600" y="600" font-family="system-ui,sans-serif" font-size="13" fill="#64748b" text-anchor="middle">Dockerized dev environment · Varnish · Redis · RabbitMQ · Robo</text>
</svg>
