<svg xmlns="http://www.w3.org/2000/svg" width="1200" height="630" viewBox="0 0 1200 630">
  <defs>
    <linearGradient id="bg" x1="0" y1="0" x2="1" y2="1" gradientUnits="objectBoundingBox">
      <stop offset="0%" stop-color="#0f172a"/>
      <stop offset="100%" stop-color="#1a0f2e"/>
    </linearGradient>
    <linearGradient id="accent" x1="0" y1="0" x2="1" y2="0" gradientUnits="objectBoundingBox">
      <stop offset="0%" stop-color="#06b6d4"/>
      <stop offset="100%" stop-color="#8b5cf6"/>
    </linearGradient>
  </defs>

  <rect width="1200" height="630" fill="url(#bg)"/>
  <rect width="1200" height="4" fill="url(#accent)"/>

  <!-- Glow -->
  <circle cx="200" cy="200" r="300" fill="#06b6d4" opacity="0.04"/>
  <circle cx="1000" cy="430" r="280" fill="#8b5cf6" opacity="0.04"/>

  <!-- Browser window -->
  <rect x="80" y="90" width="1040" height="450" rx="12" fill="#1e293b" stroke="#334155" stroke-width="1"/>
  <!-- Browser bar -->
  <rect x="80" y="90" width="1040" height="44" rx="12" fill="#0f172a"/>
  <rect x="80" y="122" width="1040" height="12" fill="#0f172a"/>
  <circle cx="118" cy="112" r="6" fill="#ef4444" opacity="0.7"/>
  <circle cx="140" cy="112" r="6" fill="#f59e0b" opacity="0.7"/>
  <circle cx="162" cy="112" r="6" fill="#22c55e" opacity="0.7"/>
  <rect x="300" y="101" width="600" height="22" rx="11" fill="#1e293b"/>
  <text x="600" y="116" font-family="system-ui,monospace" font-size="12" fill="#64748b" text-anchor="middle">mehdiaichouch.dev</text>

  <!-- NavBar simulation -->
  <rect x="80" y="134" width="1040" height="48" fill="#0f172a" opacity="0.8"/>
  <text x="130" y="163" font-family="system-ui,sans-serif" font-size="15" font-weight="800" fill="#06b6d4">MA</text>
  <text x="780" y="163" font-family="system-ui,sans-serif" font-size="12" fill="#94a3b8">About</text>
  <text x="840" y="163" font-family="system-ui,sans-serif" font-size="12" fill="#94a3b8">Projects</text>
  <text x="910" y="163" font-family="system-ui,sans-serif" font-size="12" fill="#94a3b8">Skills</text>
  <text x="965" y="163" font-family="system-ui,sans-serif" font-size="12" fill="#94a3b8">Contact</text>

  <!-- Hero section inside browser -->
  <text x="600" y="250" font-family="system-ui,sans-serif" font-size="13" fill="#64748b" text-anchor="middle" letter-spacing="3">FULL STACK DEVELOPER</text>
  <text x="600" y="295" font-family="system-ui,sans-serif" font-size="42" font-weight="800" fill="white" text-anchor="middle">Mehdi Aichouch</text>

  <!-- Animated underline bar -->
  <rect x="460" y="308" width="280" height="3" rx="2" fill="url(#accent)" opacity="0.8"/>

  <text x="600" y="345" font-family="system-ui,sans-serif" font-size="14" fill="#94a3b8" text-anchor="middle">React · Magento 2 · PHP · Python · Tailwind</text>

  <!-- CTA buttons -->
  <rect x="450" y="368" width="130" height="38" rx="19" fill="#06b6d4"/>
  <text x="515" y="392" font-family="system-ui,sans-serif" font-size="13" font-weight="600" fill="white" text-anchor="middle">View Projects</text>

  <rect x="595" y="368" width="155" height="38" rx="19" fill="transparent" stroke="#334155" stroke-width="1.5"/>
  <text x="673" y="392" font-family="system-ui,sans-serif" font-size="13" fill="#94a3b8" text-anchor="middle">Download Resume</text>

  <!-- Mini project cards preview -->
  <rect x="130" y="425" width="200" height="90" rx="8" fill="#0f172a" stroke="#334155" stroke-width="1"/>
  <rect x="130" y="425" width="200" height="50" rx="8" fill="#1e3a5f"/>
  <rect x="130" y="463" width="200" height="12" fill="#1e3a5f"/>
  <text x="230" y="488" font-family="system-ui,sans-serif" font-size="11" fill="#e2e8f0" text-anchor="middle">Carhartt WIP B2B</text>
  <text x="230" y="503" font-family="system-ui,sans-serif" font-size="10" fill="#64748b" text-anchor="middle">Magento 2 · Commercial</text>

  <rect x="350" y="425" width="200" height="90" rx="8" fill="#0f172a" stroke="#334155" stroke-width="1"/>
  <rect x="350" y="425" width="200" height="50" rx="8" fill="#0f2e1e"/>
  <rect x="350" y="463" width="200" height="12" fill="#0f2e1e"/>
  <text x="450" y="488" font-family="system-ui,sans-serif" font-size="11" fill="#e2e8f0" text-anchor="middle">Requestify</text>
  <text x="450" y="503" font-family="system-ui,sans-serif" font-size="10" fill="#64748b" text-anchor="middle">Laravel · Open Source</text>

  <rect x="570" y="425" width="200" height="90" rx="8" fill="#0f172a" stroke="#334155" stroke-width="1"/>
  <rect x="570" y="425" width="200" height="50" rx="8" fill="#1a1040"/>
  <rect x="570" y="463" width="200" height="12" fill="#1a1040"/>
  <text x="670" y="488" font-family="system-ui,sans-serif" font-size="11" fill="#e2e8f0" text-anchor="middle">Slack Bot</text>
  <text x="670" y="503" font-family="system-ui,sans-serif" font-size="10" fill="#64748b" text-anchor="middle">Python · Personal</text>

  <rect x="790" y="425" width="200" height="90" rx="8" fill="#0f172a" stroke="#334155" stroke-width="1"/>
  <rect x="790" y="425" width="200" height="50" rx="8" fill="#1a2a1f"/>
  <rect x="790" y="463" width="200" height="12" fill="#1a2a1f"/>
  <text x="890" y="488" font-family="system-ui,sans-serif" font-size="11" fill="#e2e8f0" text-anchor="middle">Library System</text>
  <text x="890" y="503" font-family="system-ui,sans-serif" font-size="10" fill="#64748b" text-anchor="middle">PHP · Docker</text>

  <!-- Bottom title -->
  <text x="600" y="575" font-family="system-ui,sans-serif" font-size="20" font-weight="700" fill="white" text-anchor="middle">Personal Portfolio</text>
  <text x="600" y="600" font-family="system-ui,sans-serif" font-size="13" fill="#64748b" text-anchor="middle">Built with React &amp; Tailwind CSS · Full-stack developer showcase</text>
</svg>
